<?xml version="1.0" standalone="no"?>
<!DOCTYPE svg PUBLIC "-//W3C//DTD SVG 20010904//EN"
 "http://www.w3.org/TR/2001/REC-SVG-20010904/DTD/svg10.dtd">
<svg version="1.0" xmlns="http://www.w3.org/2000/svg"
 width="1500.000000pt" height="650.000000pt" viewBox="0 0 1500.000000 650.000000"
 preserveAspectRatio="xMidYMid meet">

<g transform="translate(0.000000,650.000000) scale(0.100000,-0.100000)"
fill="#000000" stroke="none">
<path d="M7568 5944 c-54 -28 -59 -33 -23 -26 l25 4 -2 -168 -3 -168 -25 -7
c-14 -4 11 -7 60 -7 47 0 76 2 65 5 -11 3 -24 9 -30 14 -6 6 -12 91 -15 193
l-5 184 -47 -24z"/>
<path d="M1945 5815 c-46 -45 -31 -88 50 -140 60 -38 74 -74 35 -95 -35 -19
-70 -1 -90 44 l-19 41 0 -50 -1 -50 64 0 c76 0 106 20 106 70 0 34 -17 53 -87
98 -48 31 -58 68 -23 87 26 14 54 -1 74 -38 l15 -27 1 36 c0 33 -3 37 -31 43
-53 10 -69 7 -94 -19z"/>
<path d="M7295 5815 c-46 -45 -31 -88 50 -140 60 -38 74 -74 35 -95 -35 -19
-70 -1 -90 44 l-19 41 0 -50 -1 -50 64 0 c76 0 106 20 106 70 0 34 -17 53 -87
98 -48 31 -58 68 -23 87 26 14 54 -1 74 -38 l15 -27 1 36 c0 33 -3 37 -31 43
-53 10 -69 7 -94 -19z"/>
<path d="M493 5353 c-10 -4 -13 -184 -13 -854 l0 -849 760 -2 c418 -2 1102 -2
1520 0 l760 2 0 205 0 205 855 0 855 0 0 -75 c0 -41 1 -75 3 -75 1 0 92 32
202 70 110 39 203 70 207 70 4 0 8 -278 7 -617 0 -340 0 -806 1 -1035 l0 -418
1850 0 1850 0 0 418 c1 229 1 697 0 1040 l0 622 865 0 865 0 0 -75 c0 -41 2
-75 5 -75 2 0 94 32 204 70 110 39 203 70 206 70 3 0 5 -841 5 -1870 l0 -1870
1540 0 1540 0 0 423 c1 2196 0 4611 -3 4613 -3 3 -912 5 -2304 4 l-773 0 0
-618 0 -619 -195 69 c-108 37 -202 68 -210 68 -12 0 -15 -16 -15 -75 l0 -75
-862 2 -863 3 -2 615 c-2 338 -5 621 -8 628 -3 9 -380 12 -1837 12 -1008 0
-1839 -4 -1845 -8 -10 -6 -13 -142 -13 -620 -1 -666 3 -624 -57 -601 -15 6
-103 37 -195 69 l-168 58 0 -79 0 -79 -855 0 -855 0 0 624 c0 560 -2 624 -16
630 -19 7 -2993 7 -3011 -1z m1487 -438 l0 -395 -730 0 -730 0 0 395 0 395
730 0 730 0 0 -395z m1500 0 l0 -395 -730 0 -730 0 0 395 0 395 730 0 730 0 0
-395z m4330 0 l0 -395 -1060 0 -1060 0 0 395 0 395 1060 0 1060 0 0 -395z
m1500 0 l0 -395 -725 0 -725 0 0 395 0 395 725 0 725 0 0 -395z m3730 0 l0
-395 -750 0 -750 0 0 395 0 395 750 0 750 0 0 -395z m1500 0 l0 -395 -725 0
-725 0 0 395 0 395 725 0 725 0 0 -395z m-12560 -830 l0 -395 -730 0 -730 0 0
395 0 395 730 0 730 0 0 -395z m1500 205 l0 -190 -365 0 c-358 0 -365 0 -365
-20 0 -20 7 -20 365 -20 l365 0 0 -185 0 -185 -730 0 -730 0 0 395 0 395 730
0 730 0 0 -190z m4330 -205 l0 -395 -1060 0 -1060 0 0 189 c0 171 2 190 18
196 16 6 16 7 0 16 -16 9 -18 29 -18 199 l0 190 1060 0 1060 0 0 -395z m1500
205 l0 -190 -366 0 c-343 0 -365 -1 -362 -17 3 -17 30 -18 366 -21 l362 -2 0
-185 0 -185 -725 0 -725 0 0 395 0 395 725 0 725 0 0 -190z m3730 -205 l0
-395 -750 0 -750 0 0 189 c0 187 0 190 22 197 l23 7 -23 8 c-22 8 -22 11 -22
199 l0 190 750 0 750 0 0 -395z m1500 0 l0 -395 -725 0 -725 0 0 395 0 395
725 0 725 0 0 -395z m-6730 -835 l0 -390 -1060 0 -1060 0 0 390 0 390 1060 0
1060 0 0 -390z m1500 0 l0 -390 -725 0 -725 0 0 390 0 390 725 0 725 0 0 -390z
m3730 0 l0 -390 -750 0 -750 0 0 390 0 390 750 0 750 0 0 -390z m1500 0 l0
-390 -725 0 -725 0 0 390 0 390 725 0 725 0 0 -390z m-6730 -835 l0 -395
-1060 0 -1060 0 0 395 0 395 1060 0 1060 0 0 -395z m1500 0 l0 -395 -725 0
-725 0 0 395 0 395 725 0 725 0 0 -395z m3730 0 l0 -395 -750 0 -750 0 0 395
0 395 750 0 750 0 0 -395z m1500 0 l0 -395 -725 0 -725 0 0 395 0 395 725 0
725 0 0 -395z m-1500 -830 l0 -395 -750 0 -750 0 0 395 0 395 750 0 750 0 0
-395z m1500 0 l0 -395 -725 0 -725 0 0 395 0 395 725 0 725 0 0 -395z m-1500
-840 l0 -395 -747 2 -748 3 -3 393 -2 392 750 0 750 0 0 -395z m1500 0 l0
-395 -725 0 -725 0 0 395 0 395 725 0 725 0 0 -395z"/>
<path d="M668 4996 c-21 -5 -38 -14 -38 -19 0 -6 3 -7 7 -4 3 4 12 2 20 -4 9
-8 13 -39 13 -105 0 -85 -2 -94 -22 -108 -21 -15 -19 -16 42 -16 49 1 61 3 48
11 -15 8 -18 25 -18 104 0 86 2 95 22 109 28 20 43 20 62 0 12 -12 16 -37 16
-104 0 -80 -2 -90 -22 -104 -21 -15 -19 -16 42 -16 53 0 61 2 48 13 -13 9 -17
36 -20 116 -3 94 -6 105 -27 122 -30 24 -62 24 -94 -1 -31 -24 -35 -25 -39 -2
-3 15 -8 16 -40 8z"/>
<path d="M978 4995 c-30 -17 -45 -52 -30 -67 17 -17 40 -2 44 28 4 37 42 50
68 24 11 -11 20 -31 20 -44 0 -20 -11 -29 -65 -55 -71 -33 -94 -65 -78 -111
13 -39 57 -49 102 -24 37 20 39 20 50 2 15 -24 44 -23 67 3 19 21 19 22 -2 15
-28 -8 -34 13 -34 120 0 50 -5 87 -13 98 -18 25 -94 31 -129 11z m102 -154 c0
-50 -9 -64 -47 -75 -32 -10 -58 31 -42 66 9 22 58 55 82 57 4 1 7 -21 7 -48z"/>
<path d="M1213 4997 c-31 -12 -58 -31 -38 -27 32 7 35 -1 35 -105 0 -100 -1
-106 -22 -115 -17 -6 -5 -9 47 -9 52 0 64 3 48 9 -22 9 -23 15 -23 104 0 91 1
96 25 112 15 10 34 14 49 10 28 -7 36 -37 36 -132 0 -51 -4 -68 -20 -84 l-20
-20 68 1 c50 0 61 3 45 9 -22 9 -23 15 -23 106 0 103 9 123 55 124 38 0 45
-19 45 -122 0 -93 -1 -99 -22 -108 -17 -6 -5 -9 47 -9 52 0 64 3 48 9 -22 9
-23 15 -23 108 0 85 -3 103 -21 126 -25 32 -59 34 -105 5 l-33 -20 -20 20
c-26 26 -57 26 -98 1 -33 -20 -33 -20 -33 0 0 23 -3 23 -47 7z"/>
<path d="M1699 4993 c-39 -24 -60 -66 -61 -122 -2 -63 17 -108 53 -126 58 -31
127 -8 162 54 23 39 17 39 -21 1 -47 -47 -107 -38 -137 20 -8 16 -15 40 -15
55 0 25 0 25 89 25 l90 0 -10 33 c-19 68 -91 97 -150 60z m68 -11 c6 -4 16
-20 22 -35 l11 -27 -60 0 c-66 0 -77 13 -40 50 21 21 46 25 67 12z"/>
<path d="M2725 5128 c-59 -19 -61 -20 -35 -27 l25 -7 0 -164 0 -164 -25 -13
c-22 -11 -17 -13 50 -12 55 0 69 3 53 9 -23 9 -23 12 -23 194 0 102 -3 187 -7
189 -5 2 -21 0 -38 -5z"/>
<path d="M2478 4995 c-44 -25 -49 -75 -8 -75 14 0 20 8 22 31 6 64 88 50 88
-15 0 -20 -11 -29 -65 -55 -71 -33 -94 -65 -78 -111 13 -39 57 -49 102 -24 37
20 39 20 50 2 15 -24 44 -23 67 3 19 21 19 22 -2 15 -28 -8 -34 13 -34 120 0
50 -5 87 -13 98 -18 25 -94 31 -129 11z m100 -157 c-3 -47 -6 -54 -32 -67 -25
-12 -30 -11 -48 6 -28 29 -15 69 31 93 20 10 40 19 44 20 4 0 7 -24 5 -52z"/>
<path d="M3199 4993 c-39 -24 -60 -66 -61 -122 -2 -63 17 -108 53 -126 58 -31
127 -8 162 54 23 39 17 39 -21 1 -47 -47 -107 -38 -137 20 -8 16 -15 40 -15
55 0 25 1 25 85 25 85 0 85 0 85 26 0 15 -12 38 -29 55 -34 34 -80 38 -122 12z
m68 -11 c6 -4 16 -20 22 -35 l11 -27 -60 0 c-66 0 -77 13 -40 50 21 21 46 25
67 12z"/>
<path d="M2143 4988 c9 -7 41 -69 71 -137 62 -141 52 -143 116 20 23 57 49
110 58 117 13 10 9 12 -29 11 -24 0 -38 -3 -31 -6 6 -2 12 -12 12 -21 0 -28
-53 -164 -60 -155 -11 12 -60 141 -60 157 0 8 6 17 13 19 6 3 -15 6 -47 6 -50
1 -57 -1 -43 -11z"/>
<path d="M2852 4988 c13 -10 17 -36 20 -116 3 -95 5 -105 27 -123 30 -24 62
-24 94 1 31 25 37 25 37 1 0 -17 3 -18 35 -8 38 11 44 21 20 31 -12 4 -15 27
-15 116 l0 110 -47 -1 c-40 0 -44 -2 -25 -9 22 -9 23 -14 20 -107 -3 -93 -4
-98 -28 -110 -20 -10 -29 -10 -45 1 -18 12 -20 26 -23 120 l-3 106 -41 0 c-35
0 -39 -2 -26 -12z"/>
<path d="M6168 4996 c-21 -5 -38 -14 -38 -19 0 -6 3 -7 7 -4 3 4 12 2 20 -4 9
-8 13 -38 13 -100 0 -76 -3 -92 -20 -109 l-20 -20 63 0 c47 1 58 3 45 11 -15
8 -18 25 -18 104 0 86 2 95 22 109 28 20 43 20 62 0 12 -12 16 -37 16 -104 0
-80 -2 -90 -22 -104 -21 -15 -19 -16 42 -16 53 0 61 2 48 13 -13 9 -17 36 -20
116 -3 94 -6 105 -27 122 -30 24 -62 24 -94 -1 -31 -24 -35 -25 -39 -2 -3 15
-8 16 -40 8z"/>
<path d="M6478 4995 c-44 -25 -49 -75 -8 -75 14 0 20 8 22 31 6 64 88 50 88
-15 0 -20 -11 -29 -65 -55 -73 -34 -95 -64 -79 -109 14 -41 57 -51 103 -26 37
20 39 20 50 2 15 -24 44 -23 67 3 19 21 19 22 -2 15 -28 -8 -34 13 -34 120 0
50 -5 87 -13 98 -18 25 -94 31 -129 11z m100 -157 c-3 -47 -6 -54 -32 -67 -25
-12 -30 -11 -48 6 -28 29 -15 69 31 93 20 10 40 19 44 20 4 0 7 -24 5 -52z"/>
<path d="M6713 4997 c-31 -12 -58 -31 -38 -27 32 7 35 -1 35 -105 0 -100 -1
-106 -22 -115 -17 -6 -5 -9 47 -9 52 0 64 3 48 9 -22 9 -23 15 -23 104 0 91 1
96 25 112 15 10 34 14 49 10 28 -7 36 -37 36 -132 0 -51 -4 -68 -20 -84 l-20
-20 68 1 c50 0 61 3 45 9 -22 9 -23 15 -23 106 0 103 9 123 56 124 37 0 44
-19 44 -122 0 -93 -1 -99 -22 -108 -17 -6 -5 -9 47 -9 52 0 64 3 48 9 -22 9
-23 15 -23 108 0 85 -3 103 -21 126 -25 32 -59 34 -105 5 l-33 -20 -20 20
c-26 26 -57 26 -98 1 -33 -20 -33 -20 -33 0 0 23 -3 23 -47 7z"/>
<path d="M7199 4993 c-39 -24 -60 -66 -61 -122 -2 -63 17 -108 53 -126 58 -31
127 -8 162 54 23 39 17 39 -21 1 -47 -47 -107 -38 -137 20 -8 16 -15 40 -15
55 0 25 1 25 85 25 85 0 85 0 85 26 0 15 -12 38 -29 55 -34 34 -80 38 -122 12z
m68 -11 c6 -4 16 -20 22 -35 l11 -27 -60 0 c-66 0 -77 13 -40 50 21 21 46 25
67 12z"/>
<path d="M8555 5128 c-59 -19 -61 -20 -35 -27 l25 -7 0 -164 0 -164 -25 -13
c-22 -11 -17 -13 50 -12 55 0 69 3 53 9 -23 9 -23 12 -23 194 0 102 -3 187 -7
189 -5 2 -21 0 -38 -5z"/>
<path d="M8308 4995 c-44 -25 -49 -75 -8 -75 14 0 20 8 22 31 6 64 88 50 88
-15 0 -20 -11 -29 -65 -55 -71 -33 -94 -65 -78 -111 13 -39 57 -49 102 -24 37
20 39 20 50 2 15 -24 44 -23 67 4 17 19 17 21 2 15 -27 -10 -38 23 -38 115 0
54 -5 91 -13 102 -18 25 -94 31 -129 11z m102 -154 c0 -50 -9 -64 -47 -75 -31
-10 -60 35 -45 68 9 19 63 55 85 56 4 0 7 -22 7 -49z"/>
<path d="M9029 4993 c-39 -24 -60 -67 -61 -124 0 -64 17 -106 53 -124 58 -31
127 -8 162 54 23 39 17 39 -21 1 -47 -47 -107 -38 -137 20 -8 16 -15 40 -15
55 0 25 0 25 89 25 l90 0 -10 33 c-19 68 -91 97 -150 60z m68 -11 c6 -4 16
-20 22 -35 l11 -27 -60 0 c-66 0 -77 13 -40 50 21 21 46 25 67 12z"/>
<path d="M7974 4987 c10 -7 42 -69 71 -137 60 -141 50 -142 115 21 23 57 49
110 58 117 13 10 9 12 -29 11 -24 0 -38 -3 -31 -6 19 -7 14 -41 -17 -117 l-28
-68 -31 78 c-37 91 -38 101 -14 107 9 3 -12 5 -47 6 -56 1 -62 -1 -47 -12z"/>
<path d="M8683 4989 c14 -8 17 -25 17 -110 0 -93 2 -102 25 -124 29 -30 64
-32 98 -5 31 25 37 25 37 1 0 -17 3 -18 35 -8 38 11 44 21 20 31 -12 4 -15 27
-15 116 l0 110 -47 -1 c-40 0 -44 -2 -25 -9 22 -9 23 -14 20 -107 -3 -93 -4
-98 -28 -110 -20 -10 -29 -10 -45 1 -18 12 -20 26 -23 120 l-3 106 -42 0 c-33
-1 -38 -3 -24 -11z"/>
<path d="M11694 5126 c-9 -24 4 -48 23 -44 12 2 18 12 18 28 0 29 -32 41 -41
16z"/>
<path d="M12295 5125 c-36 -11 -38 -13 -17 -19 19 -6 22 -14 22 -62 0 -50 -10
-68 -25 -44 -9 14 -55 12 -85 -3 -44 -22 -70 -73 -70 -139 0 -55 3 -63 34 -94
38 -38 70 -43 116 -19 26 14 30 14 30 1 0 -13 7 -12 48 2 36 13 42 17 25 20
-23 3 -23 4 -23 188 0 101 -3 184 -7 183 -5 -1 -26 -7 -48 -14z m-11 -157 c23
-32 22 -165 -1 -190 -17 -19 -39 -23 -68 -12 -46 18 -62 149 -24 198 26 33 71
35 93 4z"/>
<path d="M11690 4991 c-34 -12 -40 -16 -24 -19 26 -4 34 -27 34 -109 0 -72
-12 -109 -37 -116 -10 -3 16 -5 57 -5 54 -1 69 2 53 8 -13 5 -24 11 -24 12 -1
2 -5 57 -8 124 l-6 121 -45 -16z"/>
<path d="M11858 4996 c-21 -5 -38 -14 -38 -19 0 -6 3 -7 7 -4 3 4 12 2 20 -4
9 -8 13 -38 13 -100 0 -76 -3 -92 -20 -109 l-20 -20 63 0 c47 1 58 3 45 11
-15 8 -18 25 -18 104 0 86 2 95 22 109 28 20 43 20 62 0 12 -12 16 -37 16
-104 0 -80 -2 -90 -22 -104 -21 -15 -19 -16 42 -16 53 0 61 2 48 13 -13 9 -17
35 -20 114 -3 82 -7 106 -22 122 -24 27 -66 27 -99 1 -31 -24 -35 -25 -39 -2
-3 15 -8 16 -40 8z"/>
<path d="M12469 4993 c-39 -24 -60 -67 -61 -124 0 -64 17 -106 53 -124 58 -31
127 -8 162 54 23 39 17 39 -21 1 -47 -47 -107 -38 -137 20 -8 16 -15 40 -15
55 0 25 0 25 89 25 l90 0 -10 33 c-19 68 -91 97 -150 60z m68 -11 c6 -4 16
-20 22 -35 l11 -27 -60 0 c-66 0 -77 13 -40 50 21 21 46 25 67 12z"/>
<path d="M12669 4987 c13 -6 39 -35 57 -64 l33 -51 -44 -60 c-24 -33 -50 -62
-57 -65 -7 -3 7 -6 32 -6 30 0 40 2 31 8 -12 8 -9 18 16 56 l31 47 26 -38 c29
-43 32 -60 14 -67 -7 -3 16 -6 52 -6 61 -1 63 0 42 15 -20 14 -102 125 -102
139 0 15 52 80 72 92 21 11 19 12 -27 12 -36 1 -46 -2 -35 -9 13 -8 13 -12 0
-36 -19 -35 -31 -35 -50 -1 -13 24 -13 29 0 37 10 7 -5 10 -50 10 -58 0 -62
-2 -41 -13z"/>
<path d="M13785 5128 c-59 -19 -61 -20 -35 -27 l25 -7 0 -164 0 -164 -25 -13
c-22 -11 -17 -13 50 -12 55 0 69 3 53 9 -23 9 -23 12 -23 194 0 102 -3 187 -7
189 -5 2 -21 0 -38 -5z"/>
<path d="M13538 4995 c-30 -17 -45 -52 -30 -67 17 -17 40 -2 44 28 4 37 42 50
68 24 11 -11 20 -31 20 -44 0 -20 -11 -29 -65 -55 -71 -33 -94 -65 -78 -111
13 -39 57 -49 102 -24 37 20 39 20 50 2 15 -24 44 -23 67 4 17 19 17 21 2 15
-27 -10 -38 23 -38 115 0 54 -5 91 -13 102 -18 25 -94 31 -129 11z m102 -154
c0 -50 -9 -64 -47 -75 -32 -10 -58 31 -42 66 9 22 58 55 82 57 4 1 7 -21 7
-48z"/>
<path d="M14259 4993 c-39 -24 -60 -66 -61 -122 -2 -63 17 -108 53 -126 58
-31 127 -8 162 54 23 39 17 39 -21 1 -47 -47 -107 -38 -137 20 -8 16 -15 40
-15 55 0 25 0 25 89 25 l90 0 -10 33 c-19 68 -91 97 -150 60z m68 -11 c6 -4
16 -20 22 -35 l11 -27 -60 0 c-66 0 -77 13 -40 50 21 21 46 25 67 12z"/>
<path d="M13203 4988 c9 -7 41 -69 71 -137 62 -141 52 -143 116 20 23 57 49
110 58 117 13 10 9 12 -29 11 -24 0 -38 -3 -31 -6 18 -7 15 -30 -15 -112 l-27
-74 -29 64 c-39 88 -44 116 -21 122 11 3 -10 5 -45 6 -54 1 -62 -1 -48 -11z"/>
<path d="M13913 4989 c14 -8 17 -25 17 -110 0 -93 2 -102 25 -124 29 -30 64
-32 98 -5 31 25 37 25 37 0 0 -17 3 -18 28 -9 59 21 58 20 35 30 -22 8 -23 14
-23 119 l0 110 -47 -1 c-40 0 -44 -2 -25 -9 22 -9 23 -14 20 -107 -3 -93 -4
-98 -28 -110 -20 -10 -29 -10 -45 1 -18 12 -20 26 -23 120 l-3 106 -42 0 c-33
-1 -38 -3 -24 -11z"/>
<path d="M1267 4196 c-26 -32 -33 -46 -22 -46 12 0 15 -17 15 -103 0 -112 13
-147 53 -147 26 0 67 26 67 43 0 8 -3 8 -12 -1 -17 -17 -45 -15 -52 4 -3 9 -6
58 -6 110 l0 94 30 0 c17 0 30 5 30 10 0 6 -13 10 -29 10 -27 0 -30 4 -33 36
l-3 35 -38 -45z"/>
<path d="M983 4166 c-38 -13 -53 -26 -30 -26 15 0 17 -18 17 -170 0 -168 0
-171 -22 -180 -17 -6 -3 -9 52 -9 67 -1 72 1 50 12 -22 11 -25 20 -28 70 -3
53 7 73 24 46 10 -16 82 -4 106 18 44 39 63 140 36 198 -13 28 -55 55 -85 55
-10 0 -32 -9 -50 -20 -30 -18 -32 -18 -35 -1 -3 16 -7 17 -35 7z m133 -34 c22
-14 34 -52 34 -105 0 -89 -50 -132 -108 -91 -20 13 -22 24 -22 94 0 58 4 83
16 94 16 17 61 21 80 8z"/>
<path d="M1420 4161 c-35 -12 -40 -16 -22 -19 21 -3 22 -7 22 -108 0 -99 -1
-105 -22 -114 -17 -6 -3 -9 52 -9 41 1 68 3 60 6 -30 11 -40 37 -40 109 0 56
4 77 19 95 17 21 22 22 41 11 29 -18 54 1 39 29 -14 26 -41 24 -70 -7 l-24
-26 -5 25 c-5 24 -5 24 -50 8z"/>
<path d="M6767 4196 c-26 -32 -33 -46 -22 -46 12 0 15 -17 15 -103 0 -77 4
-108 16 -125 18 -26 50 -28 82 -6 27 19 30 39 3 22 -15 -9 -23 -9 -35 1 -13
11 -16 34 -16 112 l0 99 30 0 c17 0 30 5 30 10 0 6 -13 10 -29 10 -27 0 -30 4
-33 36 l-3 35 -38 -45z"/>
<path d="M6483 4166 c-38 -13 -53 -26 -30 -26 15 0 17 -18 17 -170 0 -168 0
-171 -22 -180 -17 -6 -3 -9 52 -9 67 -1 72 1 50 12 -22 11 -25 20 -28 70 -3
53 7 73 24 46 10 -16 82 -4 106 18 44 39 63 140 36 198 -13 28 -55 55 -85 55
-10 0 -32 -9 -50 -20 -30 -18 -32 -18 -35 -1 -3 16 -7 17 -35 7z m146 -52 c16
-20 21 -41 21 -84 0 -92 -49 -135 -108 -94 -20 13 -22 24 -22 94 0 88 12 110
60 110 19 0 36 -9 49 -26z"/>
<path d="M6920 4161 c-35 -12 -40 -16 -22 -19 21 -3 22 -7 22 -108 0 -99 -1
-105 -22 -114 -17 -6 -3 -9 52 -9 41 1 68 3 60 6 -30 11 -40 37 -40 109 0 56
4 77 19 95 18 21 22 23 42 11 25 -16 43 -4 37 24 -5 29 -37 28 -68 -1 l-28
-27 -4 24 -3 25 -45 -16z"/>
<path d="M12232 4285 c-41 -34 -64 -97 -64 -175 -1 -88 18 -144 59 -180 83
-74 178 -8 198 137 23 168 -95 301 -193 218z m112 -28 c19 -25 21 -42 21 -150
0 -144 -15 -187 -64 -187 -15 0 -35 8 -43 18 -50 55 -50 280 0 335 22 25 61
18 86 -16z"/>
<path d="M13735 4268 c-31 -17 -45 -39 -45 -72 0 -44 11 -56 82 -91 59 -28 63
-32 63 -65 0 -29 -5 -36 -27 -44 -36 -13 -80 2 -93 32 -15 34 -27 26 -23 -15
l3 -38 73 -3 c66 -3 74 -1 97 22 29 29 33 80 10 113 -8 12 -36 29 -62 39 -66
24 -74 33 -71 68 3 28 6 31 43 34 34 3 43 -1 62 -25 l23 -28 0 36 c0 30 -4 38
-22 43 -36 9 -91 7 -113 -6z"/>
<path d="M6455 3458 c-59 -19 -61 -20 -35 -27 l25 -7 0 -164 0 -164 -25 -13
c-22 -11 -17 -13 50 -12 55 0 69 3 53 9 -23 9 -23 12 -23 194 0 102 -3 187 -7
189 -5 2 -21 0 -38 -5z"/>
<path d="M6639 3323 c-39 -24 -60 -66 -61 -122 -2 -63 17 -108 53 -126 58 -31
127 -8 162 54 23 39 17 39 -21 1 -47 -47 -107 -38 -137 20 -8 16 -15 40 -15
55 0 25 1 25 85 25 85 0 85 0 85 26 0 15 -12 38 -29 55 -34 34 -80 38 -122 12z
m68 -11 c6 -4 16 -20 22 -35 l11 -27 -60 0 c-66 0 -77 13 -40 50 21 21 46 25
67 12z"/>
<path d="M6858 3326 c-21 -5 -38 -14 -38 -19 0 -6 3 -7 7 -4 3 4 12 2 20 -4 9
-8 13 -38 13 -100 0 -76 -3 -92 -20 -109 l-20 -20 63 0 c47 1 58 3 45 11 -15
8 -18 25 -18 104 0 86 2 95 22 109 28 20 43 20 62 0 12 -12 16 -37 16 -104 0
-80 -2 -90 -22 -104 -21 -15 -19 -16 42 -16 53 0 61 2 48 13 -13 9 -17 36 -20
116 -3 94 -6 105 -27 122 -30 24 -62 24 -94 -1 -31 -24 -35 -25 -39 -2 -3 15
-8 16 -40 8z"/>
<path d="M8612 3460 l-72 -5 -30 -63 c-17 -35 -30 -67 -30 -71 0 -3 23 -12 52
-19 61 -14 105 -52 114 -97 8 -43 -18 -102 -51 -117 -23 -10 -33 -8 -69 12
-43 23 -66 21 -66 -5 0 -39 85 -46 150 -12 123 63 98 233 -40 268 -45 12 -47
14 -37 36 9 21 17 23 74 23 59 0 64 2 74 26 5 15 8 27 7 28 -2 0 -36 -1 -76
-4z"/>
<path d="M12268 3444 c-53 -27 -62 -38 -23 -28 l25 6 -2 -168 -3 -168 -25 -7
c-14 -4 11 -7 60 -7 47 0 76 2 65 5 -11 3 -24 9 -30 14 -6 6 -12 91 -15 193
l-5 184 -47 -24z"/>
<path d="M13718 3383 c-13 -3 -18 -15 -18 -41 l0 -37 23 28 c15 19 32 28 53
29 45 1 54 -8 54 -56 l0 -44 -60 -4 c-78 -6 -105 -29 -105 -92 0 -58 25 -86
77 -86 21 0 52 7 68 15 27 14 30 14 30 0 0 -11 11 -15 40 -15 22 0 40 5 40 10
0 6 -7 10 -15 10 -12 0 -15 19 -15 110 0 119 -9 152 -47 169 -24 11 -91 13
-125 4z m112 -198 c0 -59 -14 -75 -62 -75 -34 0 -48 18 -48 61 0 45 27 69 77
69 l33 0 0 -55z"/>
<path d="M7124 2626 c-9 -24 4 -48 23 -44 12 2 18 12 18 28 0 29 -32 41 -41
16z"/>
<path d="M7287 2526 c-26 -32 -33 -46 -22 -46 12 0 15 -17 15 -103 0 -112 13
-147 53 -147 26 0 67 26 67 43 0 8 -3 8 -12 -1 -17 -17 -45 -15 -52 4 -3 9 -6
58 -6 110 l0 94 30 0 c17 0 30 5 30 10 0 6 -13 10 -29 10 -27 0 -30 4 -33 36
l-3 35 -38 -45z"/>
<path d="M5863 2491 c-50 -31 -69 -80 -65 -164 1 -18 15 -42 36 -63 49 -49 95
-48 147 5 49 48 51 74 4 32 -40 -35 -54 -37 -94 -16 -47 24 -66 108 -36 164
25 49 79 57 98 14 14 -34 26 -43 44 -36 19 7 16 37 -6 57 -30 28 -90 31 -128
7z"/>
<path d="M6098 2495 c-30 -17 -45 -52 -30 -67 17 -17 40 -2 44 28 4 37 42 50
68 24 11 -11 20 -31 20 -44 0 -20 -11 -29 -65 -55 -71 -33 -94 -65 -78 -111
13 -39 57 -49 102 -24 37 20 39 20 50 2 15 -24 44 -23 67 4 17 19 17 21 2 15
-27 -10 -38 23 -38 115 0 54 -5 91 -13 102 -18 25 -94 31 -129 11z m102 -154
c0 -50 -9 -64 -47 -75 -28 -9 -55 28 -46 62 5 19 62 60 86 62 4 0 7 -22 7 -49z"/>
<path d="M6333 2496 c-38 -13 -53 -26 -30 -26 15 0 17 -18 17 -170 0 -168 0
-171 -22 -180 -17 -6 -3 -9 52 -9 67 -1 72 1 50 12 -22 11 -25 20 -28 70 -3
53 7 73 23 47 9 -15 52 -12 86 5 44 23 69 71 69 132 0 64 -16 100 -51 119 -37
19 -58 18 -96 -6 -30 -18 -32 -18 -35 -1 -3 16 -7 17 -35 7z m146 -52 c16 -20
21 -41 21 -84 0 -92 -49 -135 -108 -94 -20 13 -22 24 -22 94 0 88 12 110 60
110 19 0 36 -9 49 -26z"/>
<path d="M6638 2495 c-44 -25 -49 -75 -8 -75 14 0 20 8 22 31 6 64 88 50 88
-15 0 -20 -11 -29 -65 -55 -71 -33 -94 -65 -78 -111 13 -39 57 -49 102 -24 37
20 39 20 50 2 15 -24 44 -23 67 4 17 19 17 21 2 15 -27 -10 -38 23 -38 115 0
54 -5 91 -13 102 -18 25 -94 31 -129 11z m102 -154 c0 -50 -9 -64 -47 -75 -27
-9 -58 32 -48 64 6 17 65 58 88 60 4 0 7 -22 7 -49z"/>
<path d="M6903 2491 c-50 -31 -69 -80 -65 -164 1 -18 15 -42 36 -63 49 -49 95
-48 147 5 49 48 51 74 4 32 -40 -35 -54 -37 -94 -16 -47 24 -66 108 -36 164
25 49 79 57 98 14 14 -34 26 -43 44 -36 19 7 16 37 -6 57 -30 28 -90 31 -128
7z"/>
<path d="M7120 2491 c-34 -12 -40 -16 -24 -19 26 -4 34 -27 34 -98 0 -78 -10
-115 -34 -124 -14 -6 3 -9 54 -9 54 0 69 3 53 9 -28 11 -32 31 -36 156 l-2
101 -45 -16z"/>
<path d="M7418 2493 c6 -2 37 -57 68 -121 57 -122 60 -140 28 -190 -13 -19
-21 -22 -49 -16 -27 5 -36 2 -41 -10 -8 -21 13 -46 38 -46 40 0 73 52 132 210
32 85 66 161 74 168 13 10 9 12 -28 12 -37 0 -41 -2 -28 -12 15 -12 14 -21
-14 -98 l-31 -84 -34 73 c-37 83 -41 108 -15 114 9 3 -12 5 -48 5 -36 0 -59
-2 -52 -5z"/>
<path d="M8612 2630 l-72 -5 -30 -63 c-17 -35 -30 -67 -30 -71 0 -3 23 -12 52
-19 61 -14 105 -52 114 -97 8 -43 -18 -102 -51 -117 -23 -10 -33 -8 -69 12
-43 23 -66 21 -66 -5 0 -57 163 -36 203 27 20 30 31 91 23 123 -11 45 -63 92
-115 106 -46 12 -48 14 -38 36 9 21 17 23 74 23 59 0 64 2 74 26 5 15 8 27 7
28 -2 0 -36 -1 -76 -4z"/>
<path d="M12240 2627 c-28 -14 -70 -72 -69 -96 0 -13 2 -13 12 3 33 51 45 60
81 60 50 0 81 -32 80 -82 -2 -56 -27 -101 -105 -186 -38 -42 -69 -79 -69 -81
0 -3 51 -5 113 -5 l113 0 12 33 c16 44 15 55 -2 32 -12 -16 -29 -20 -95 -23
-45 -2 -81 0 -81 5 0 5 25 33 56 63 100 98 131 178 94 238 -30 49 -88 65 -140
39z"/>
<path d="M13721 2681 c-11 -7 -9 -10 10 -13 l24 -3 3 -207 c2 -201 2 -208 -17
-208 -11 0 -23 -4 -26 -10 -4 -6 23 -10 75 -10 52 0 79 4 75 10 -3 6 -15 10
-25 10 -19 0 -20 11 -22 216 l-3 216 -40 4 c-22 2 -46 -1 -54 -5z"/>
<path d="M12244 1801 c-26 -11 -64 -58 -64 -78 0 -8 11 -2 26 16 20 24 34 31
63 31 47 0 61 -14 61 -61 0 -37 -17 -59 -76 -96 -17 -10 -15 -12 18 -12 88 -2
120 -130 41 -172 -20 -11 -30 -11 -56 0 -61 25 -77 25 -77 2 0 -47 121 -39
177 12 57 53 56 156 -2 187 l-24 13 24 29 c48 57 22 126 -50 134 -22 2 -50 0
-61 -5z"/>
<path d="M13735 1681 c-48 -21 -69 -59 -73 -132 -7 -119 30 -169 125 -169 108
0 147 46 141 166 -3 67 -6 77 -35 106 -26 26 -41 32 -85 35 -29 1 -62 -1 -73
-6z m114 -42 c41 -44 35 -185 -10 -221 -46 -38 -102 -12 -120 55 -13 48 -4
132 17 165 20 30 85 31 113 1z"/>
<path d="M12269 868 c-40 -57 -81 -115 -91 -130 -10 -14 -18 -36 -18 -47 0
-20 5 -21 80 -21 l80 0 0 -50 c0 -47 2 -50 25 -50 23 0 25 3 25 50 0 49 1 50
31 50 24 0 30 4 27 18 -2 10 -14 18 -31 20 l-27 3 0 130 c0 106 -3 129 -15
129 -8 0 -47 -46 -86 -102z m51 -63 l0 -95 -65 0 c-36 0 -65 3 -65 6 0 7 122
184 127 184 2 0 3 -43 3 -95z"/>
<path d="M13670 904 c-22 -10 -36 -11 -38 -4 -2 5 -25 10 -50 9 -41 0 -44 -2
-24 -11 21 -11 22 -16 22 -140 0 -105 -3 -128 -14 -128 -8 0 -18 -4 -21 -10
-4 -6 20 -10 64 -10 41 0 71 4 71 10 0 6 -9 10 -20 10 -19 0 -20 7 -20 119 0
129 1 131 60 131 52 0 60 -20 60 -141 0 -102 -1 -109 -20 -109 -11 0 -20 -4
-20 -10 0 -6 30 -10 70 -10 66 0 98 15 48 22 -22 3 -23 7 -26 119 -3 130 -4
129 75 129 45 0 53 -21 53 -144 0 -99 -1 -106 -20 -106 -11 0 -20 -4 -20 -10
0 -6 28 -10 65 -10 63 0 86 12 45 23 -19 5 -20 14 -20 126 0 108 -2 123 -20
141 -24 24 -62 25 -119 6 -35 -13 -44 -13 -68 -1 -35 19 -69 18 -113 -1z"/>
</g>
</svg>
